{"title":"Ant Man and the Wasp 2018 Digital Extras 720p WEB-DL x264 [MW] ","magnet":"magnet:?xt=urn:btih:d7a7f3b208345b473a8d1db651d78ff7498d712c&dn=Ant+Man+and+the+Wasp+2018+Digital+Extras+720p+WEB-DL+x264+%5BMW%5D+&tr=udp%3A%2F%2Ftracker.leechers-paradise.org%3A6969&tr=udp%3A%2F%2Fzer0day.ch%3A1337&tr=udp%3A%2F%2Fopen.demonii.com%3A1337&tr=udp%3A%2F%2Ftracker.coppersurfer.tk%3A6969&tr=udp%3A%2F%2Fexodus.desync.com%3A6969","uploader":"MFreaky","categoryP":"video","categoryS":"hd___movies","size":"560460165","seeders":"2","leechers":"7","description":"Ant Man and the Wasp 2018 Digital Extras 720p WEB-DL DD 5.1 x264 ESub [MW]\r\n <a href=\"\nhttps://pichub.site/image/EHdPJ\" rel=\"nofollow\" target=\"_NEW\">\nhttps://pichub.site/image/EHdPJ</a> <a href=\"\nhttps://pichub.site/image/EHEB8\" rel=\"nofollow\" target=\"_NEW\">\nhttps://pichub.site/image/EHEB8</a> <a href=\"\nhttps://pichub.site/image/EHchh\" rel=\"nofollow\" target=\"_NEW\">\nhttps://pichub.site/image/EHchh</a> <a href=\"\nhttps://pichub.site/image/EHVf5\" rel=\"nofollow\" target=\"_NEW\">\nhttps://pichub.site/image/EHVf5</a> <a href=\"\nhttps://pichub.site/image/EHwWr\" rel=\"nofollow\" target=\"_NEW\">\nhttps://pichub.site/image/EHwWr</a>\r\n\r\nIMDB <a href=\"\nhttps://www.imdb.com/title/tt5095030/\" rel=\"nofollow\" target=\"_NEW\">\nhttps://www.imdb.com/title/tt5095030/</a>\r\n\r\nVideo\r\nFormat                                   : AVC\r\nFormat/Info                              : Advanced Video Codec\r\nFormat profile                           : High@L4.1\r\nFormat settings                          : CABAC / 5 Ref Frames\r\nFormat settings, CABAC                   : Yes\r\nFormat settings, RefFrames               : 5 frames\r\nCodec ID                                 : V_MPEG4/ISO/AVC\r\nDuration                                 : 38 min 38 s\r\nBit rate                                 : 1 550 kb/s\r\nWidth                                    : 1 280 pixels\r\nHeight                                   : 720 pixels\r\nDisplay aspect ratio                     : 16:9\r\nFrame rate mode                          : Constant\r\nFrame rate                               : 23.976 (24000/1001) FPS\r\nColor space                              : YUV\r\nChroma subsampling                       : 4:2:0\r\nBit depth                                : 8 bits\r\nBits/(Pixel*Frame)                       : 0.070\r\nStream size                              : 428 MiB (80%)\r\nWriting library                          : x264 core 155 r2901 7d0ff22\r\n\r\nAudio\r\nFormat                                   : AC-3\r\nFormat/Info                              : Audio Coding 3\r\nCodec ID                                 : A_AC3\r\nDuration                                 : 38 min 38 s\r\nBit rate mode                            : Constant\r\nBit rate                                 : 384 kb/s\r\nChannel(s)                               : 6 channels\r\nChannel positions                        : Front: L C R, Side: L R, LFE\r\nSampling rate                            : 48.0 kHz\r\nFrame rate                               : 31.250 FPS (1536 SPF)\r\nBit depth                                : 16 bits\r\nStream size                              : 106 MiB (20%)\r\nLanguage                                 : English","last_updated":"2018-10-02T12:29:24.566Z","parsed":{"xt":"urn:btih:d7a7f3b208345b473a8d1db651d78ff7498d712c","dn":"Ant Man and the Wasp 2018 Digital Extras 720p WEB-DL x264 [MW] ","tr":["udp://exodus.desync.com:6969","udp://open.demonii.com:1337","udp://tracker.coppersurfer.tk:6969","udp://tracker.leechers-paradise.org:6969","udp://zer0day.ch:1337"],"infoHash":"d7a7f3b208345b473a8d1db651d78ff7498d712c","infoHashBuffer":{"type":"Buffer","data":[215,167,243,178,8,52,91,71,58,141,29,182,81,215,143,247,73,141,113,44]},"name":"Ant Man and the Wasp 2018 Digital Extras 720p WEB-DL x264 [MW] ","announce":["udp://exodus.desync.com:6969","udp://open.demonii.com:1337","udp://tracker.coppersurfer.tk:6969","udp://tracker.leechers-paradise.org:6969","udp://zer0day.ch:1337"],"urlList":[]}}